<?xml version="1.0" encoding="utf-8"?>
<svg xmlns="http://www.w3.org/2000/svg" viewBox="0 0 500 500">
  <rect width="100" height="100" fill="none" x="305.809" y="206.224"/>
  <path d="M 149.648 270.963 C 138.937 275.824 127.509 278.917 115.808 280.123 C 114.229 280.287 112.703 279.502 111.918 278.123 C 103.248 262.843 100.398 243.833 103.918 222.973 C 108.408 196.053 123.008 169.103 145.038 147.073 C 167.068 125.043 194.038 110.443 220.938 105.953 C 243.728 102.163 264.308 105.953 280.228 116.553 C 282.802 118.243 282.581 122.086 279.83 123.47 C 279.559 123.606 279.273 123.711 278.978 123.783 C 271.484 125.569 264.177 128.067 257.158 131.243 C 235.388 141.143 207.558 162.303 198.638 206.943 C 192.528 237.223 176.058 258.763 149.648 270.963 Z M 300.938 138.873 C 300.154 137.497 298.633 136.713 297.058 136.873 C 285.353 138.07 273.92 141.164 263.208 146.033 C 236.798 158.233 220.328 179.773 214.268 210.033 C 205.338 254.673 177.518 275.833 155.748 285.733 C 148.729 288.908 141.422 291.406 133.928 293.193 C 130.924 293.87 129.781 297.546 131.869 299.808 C 132.113 300.073 132.392 300.303 132.698 300.493 C 144.568 308.413 159.018 312.493 175.048 312.493 C 180.718 312.476 186.377 311.995 191.968 311.053 C 218.878 306.563 245.838 291.963 267.868 269.933 C 289.898 247.903 304.498 220.933 308.988 194.033 C 312.428 173.173 309.608 154.153 300.938 138.873 Z" style="fill: rgb(255, 112, 67);"/>
  <path d="M 113.153 123.9 L 204.875 362.614 L 296.597 123.9 L 113.153 123.9 Z" fill="none" stroke-width="10" style="stroke: rgb(80, 130, 194);"/>
  <path d="M 176.619 215.984 C 165.908 220.845 161.533 213.392 167.675 203.36 C 269.008 37.861 172.165 208.831 170.009 209.658 C 153.607 215.953 159.527 201.302 163.047 180.442 C 167.537 153.522 123.008 169.103 145.038 147.073 C 167.068 125.043 194.038 110.443 220.938 105.953 C 243.728 102.163 264.308 105.953 280.228 116.553 C 282.802 118.243 282.581 122.086 279.83 123.47 C 279.559 123.606 279.273 123.711 278.978 123.783 C 271.484 125.569 264.177 128.067 257.158 131.243 C 235.388 141.143 207.558 162.303 198.638 206.943 C 192.528 237.223 203.029 203.784 176.619 215.984 Z M 208.566 276.821 C 235.476 272.331 273.92 141.164 263.208 146.033 C 236.798 158.233 220.328 179.773 214.268 210.033 C 205.338 254.673 202.975 277.763 208.566 276.821 Z" style="fill: rgb(255, 112, 67);"/>
</svg>